<mxfile host="app.diagrams.net" modified="2020-10-04T16:57:07.037Z" agent="5.0 (Windows NT 10.0; Win64; x64) AppleWebKit/537.36 (KHTML, like Gecko) Chrome/85.0.4183.121 Safari/537.36" etag="TLwpmmdmCCtFMmdFb3Qu" version="13.7.7" type="github">
  <diagram id="C5RBs43oDa-KdzZeNtuy" name="Page-1">
    <mxGraphModel dx="1221" dy="682" grid="1" gridSize="10" guides="1" tooltips="1" connect="1" arrows="1" fold="1" page="1" pageScale="1" pageWidth="827" pageHeight="1169" math="0" shadow="0">
      <root>
        <mxCell id="WIyWlLk6GJQsqaUBKTNV-0" />
        <mxCell id="WIyWlLk6GJQsqaUBKTNV-1" parent="WIyWlLk6GJQsqaUBKTNV-0" />
        <mxCell id="o_hP6OhIO7ro0egOGFB4-0" value="Game Data Manager" style="rounded=0;whiteSpace=wrap;html=1;fillColor=#dae8fc;strokeColor=#6c8ebf;" vertex="1" parent="WIyWlLk6GJQsqaUBKTNV-1">
          <mxGeometry x="750" y="205" width="120" height="60" as="geometry" />
        </mxCell>
        <mxCell id="o_hP6OhIO7ro0egOGFB4-37" style="edgeStyle=orthogonalEdgeStyle;curved=0;rounded=1;sketch=0;orthogonalLoop=1;jettySize=auto;html=1;entryX=0;entryY=1;entryDx=0;entryDy=0;" edge="1" parent="WIyWlLk6GJQsqaUBKTNV-1" source="o_hP6OhIO7ro0egOGFB4-10" target="o_hP6OhIO7ro0egOGFB4-24">
          <mxGeometry relative="1" as="geometry" />
        </mxCell>
        <mxCell id="o_hP6OhIO7ro0egOGFB4-10" value="男性友人(收集情報)" style="rounded=0;whiteSpace=wrap;html=1;" vertex="1" parent="WIyWlLk6GJQsqaUBKTNV-1">
          <mxGeometry x="343" y="320" width="140" height="40" as="geometry" />
        </mxCell>
        <mxCell id="o_hP6OhIO7ro0egOGFB4-13" value="Player Data Manager" style="rounded=0;whiteSpace=wrap;html=1;fillColor=#dae8fc;strokeColor=#6c8ebf;" vertex="1" parent="WIyWlLk6GJQsqaUBKTNV-1">
          <mxGeometry x="750" y="380" width="120" height="60" as="geometry" />
        </mxCell>
        <mxCell id="o_hP6OhIO7ro0egOGFB4-39" style="edgeStyle=orthogonalEdgeStyle;curved=0;rounded=1;sketch=0;orthogonalLoop=1;jettySize=auto;html=1;entryX=0;entryY=0.5;entryDx=0;entryDy=0;" edge="1" parent="WIyWlLk6GJQsqaUBKTNV-1" source="o_hP6OhIO7ro0egOGFB4-24" target="o_hP6OhIO7ro0egOGFB4-0">
          <mxGeometry relative="1" as="geometry" />
        </mxCell>
        <mxCell id="o_hP6OhIO7ro0egOGFB4-24" value="角色Data" style="rounded=1;whiteSpace=wrap;html=1;sketch=0;" vertex="1" parent="WIyWlLk6GJQsqaUBKTNV-1">
          <mxGeometry x="570" y="205" width="120" height="60" as="geometry" />
        </mxCell>
        <mxCell id="o_hP6OhIO7ro0egOGFB4-69" value="&lt;font style=&quot;font-size: 24px&quot;&gt;遊戲主題:我不要入職魔法師啊&lt;br&gt;遊戲說明:一個即將邁入30的男子，為了逃避魔法師大隊的魔爪，決定要在最後幾天努力脫單。&lt;br&gt;遊戲方式:交友軟體簡訊對話選擇模式。&lt;br&gt;參考遊戲:秘密關係，秘密短訊&lt;br&gt;&lt;/font&gt;" style="text;html=1;strokeColor=none;fillColor=none;align=left;verticalAlign=top;whiteSpace=wrap;rounded=0;sketch=0;" vertex="1" parent="WIyWlLk6GJQsqaUBKTNV-1">
          <mxGeometry x="1119" y="71" width="330" height="380" as="geometry" />
        </mxCell>
        <mxCell id="o_hP6OhIO7ro0egOGFB4-81" style="edgeStyle=orthogonalEdgeStyle;curved=0;rounded=1;sketch=0;orthogonalLoop=1;jettySize=auto;html=1;entryX=0;entryY=0.5;entryDx=0;entryDy=0;" edge="1" parent="WIyWlLk6GJQsqaUBKTNV-1" source="o_hP6OhIO7ro0egOGFB4-71" target="o_hP6OhIO7ro0egOGFB4-79">
          <mxGeometry relative="1" as="geometry" />
        </mxCell>
        <mxCell id="o_hP6OhIO7ro0egOGFB4-71" value="角色劇情" style="rounded=0;whiteSpace=wrap;html=1;sketch=0;align=center;" vertex="1" parent="WIyWlLk6GJQsqaUBKTNV-1">
          <mxGeometry x="343" y="60" width="120" height="60" as="geometry" />
        </mxCell>
        <mxCell id="o_hP6OhIO7ro0egOGFB4-74" value="" style="edgeStyle=orthogonalEdgeStyle;curved=0;rounded=1;sketch=0;orthogonalLoop=1;jettySize=auto;html=1;" edge="1" parent="WIyWlLk6GJQsqaUBKTNV-1" source="o_hP6OhIO7ro0egOGFB4-73" target="o_hP6OhIO7ro0egOGFB4-13">
          <mxGeometry relative="1" as="geometry" />
        </mxCell>
        <mxCell id="o_hP6OhIO7ro0egOGFB4-73" value="解鎖對象" style="rounded=0;whiteSpace=wrap;html=1;sketch=0;align=center;" vertex="1" parent="WIyWlLk6GJQsqaUBKTNV-1">
          <mxGeometry x="590" y="380" width="120" height="60" as="geometry" />
        </mxCell>
        <mxCell id="o_hP6OhIO7ro0egOGFB4-76" style="edgeStyle=orthogonalEdgeStyle;curved=0;rounded=1;sketch=0;orthogonalLoop=1;jettySize=auto;html=1;entryX=0.5;entryY=1;entryDx=0;entryDy=0;" edge="1" parent="WIyWlLk6GJQsqaUBKTNV-1" source="o_hP6OhIO7ro0egOGFB4-75" target="o_hP6OhIO7ro0egOGFB4-13">
          <mxGeometry relative="1" as="geometry" />
        </mxCell>
        <mxCell id="o_hP6OhIO7ro0egOGFB4-75" value="劇情進度" style="rounded=0;whiteSpace=wrap;html=1;sketch=0;align=center;" vertex="1" parent="WIyWlLk6GJQsqaUBKTNV-1">
          <mxGeometry x="590" y="460" width="120" height="60" as="geometry" />
        </mxCell>
        <mxCell id="o_hP6OhIO7ro0egOGFB4-82" style="edgeStyle=orthogonalEdgeStyle;curved=0;rounded=1;sketch=0;orthogonalLoop=1;jettySize=auto;html=1;entryX=0;entryY=0.75;entryDx=0;entryDy=0;" edge="1" parent="WIyWlLk6GJQsqaUBKTNV-1" source="o_hP6OhIO7ro0egOGFB4-77" target="o_hP6OhIO7ro0egOGFB4-79">
          <mxGeometry relative="1" as="geometry" />
        </mxCell>
        <mxCell id="o_hP6OhIO7ro0egOGFB4-77" value="角色圖" style="rounded=0;whiteSpace=wrap;html=1;sketch=0;align=center;" vertex="1" parent="WIyWlLk6GJQsqaUBKTNV-1">
          <mxGeometry x="343" y="130" width="120" height="60" as="geometry" />
        </mxCell>
        <mxCell id="o_hP6OhIO7ro0egOGFB4-83" style="edgeStyle=orthogonalEdgeStyle;curved=0;rounded=1;sketch=0;orthogonalLoop=1;jettySize=auto;html=1;" edge="1" parent="WIyWlLk6GJQsqaUBKTNV-1" source="o_hP6OhIO7ro0egOGFB4-79" target="o_hP6OhIO7ro0egOGFB4-24">
          <mxGeometry relative="1" as="geometry" />
        </mxCell>
        <mxCell id="o_hP6OhIO7ro0egOGFB4-79" value="攻略對象" style="rounded=0;whiteSpace=wrap;html=1;sketch=0;align=center;" vertex="1" parent="WIyWlLk6GJQsqaUBKTNV-1">
          <mxGeometry x="540" y="100" width="120" height="60" as="geometry" />
        </mxCell>
        <mxCell id="o_hP6OhIO7ro0egOGFB4-86" value="" style="edgeStyle=orthogonalEdgeStyle;curved=0;rounded=1;sketch=0;orthogonalLoop=1;jettySize=auto;html=1;" edge="1" parent="WIyWlLk6GJQsqaUBKTNV-1" source="o_hP6OhIO7ro0egOGFB4-84" target="o_hP6OhIO7ro0egOGFB4-85">
          <mxGeometry relative="1" as="geometry" />
        </mxCell>
        <mxCell id="o_hP6OhIO7ro0egOGFB4-84" value="群組對話" style="rounded=0;whiteSpace=wrap;html=1;sketch=0;align=center;" vertex="1" parent="WIyWlLk6GJQsqaUBKTNV-1">
          <mxGeometry x="220" y="210" width="120" height="60" as="geometry" />
        </mxCell>
        <mxCell id="o_hP6OhIO7ro0egOGFB4-87" style="edgeStyle=orthogonalEdgeStyle;curved=0;rounded=1;sketch=0;orthogonalLoop=1;jettySize=auto;html=1;" edge="1" parent="WIyWlLk6GJQsqaUBKTNV-1" source="o_hP6OhIO7ro0egOGFB4-85" target="o_hP6OhIO7ro0egOGFB4-24">
          <mxGeometry relative="1" as="geometry" />
        </mxCell>
        <mxCell id="o_hP6OhIO7ro0egOGFB4-85" value="魔法師群組" style="rounded=0;whiteSpace=wrap;html=1;sketch=0;align=center;" vertex="1" parent="WIyWlLk6GJQsqaUBKTNV-1">
          <mxGeometry x="363" y="210" width="120" height="60" as="geometry" />
        </mxCell>
      </root>
    </mxGraphModel>
  </diagram>
</mxfile>
